<mxfile host="65bd71144e">
    <diagram id="tsZ_S46VmYafVazHeUTB" name="ページ1">
        <mxGraphModel dx="896" dy="887" grid="1" gridSize="10" guides="1" tooltips="1" connect="1" arrows="1" fold="1" page="1" pageScale="1" pageWidth="827" pageHeight="1169" math="0" shadow="0">
            <root>
                <mxCell id="0"/>
                <mxCell id="1" parent="0"/>
                <mxCell id="2" value="" style="rounded=0;whiteSpace=wrap;html=1;fillColor=none;" vertex="1" parent="1">
                    <mxGeometry x="190" y="40" width="440" height="310" as="geometry"/>
                </mxCell>
                <mxCell id="7" value="リバーシで学ぶアプリケーション設計入門" style="rounded=0;whiteSpace=wrap;html=1;fillColor=none;" vertex="1" parent="1">
                    <mxGeometry x="190" y="40" width="440" height="60" as="geometry"/>
                </mxCell>
                <mxCell id="9" value="対戦する" style="rounded=1;whiteSpace=wrap;html=1;arcSize=8;fillColor=none;" vertex="1" parent="1">
                    <mxGeometry x="350" y="130" width="120" height="40" as="geometry"/>
                </mxCell>
                <mxCell id="10" value="過去の対戦結果" style="rounded=1;whiteSpace=wrap;html=1;arcSize=0;fillColor=none;direction=south;" vertex="1" parent="1">
                    <mxGeometry x="247.5" y="190" width="325" height="125" as="geometry"/>
                </mxCell>
                <mxCell id="11" value="" style="rounded=0;whiteSpace=wrap;html=1;fillColor=none;" vertex="1" parent="1">
                    <mxGeometry x="190" y="380" width="440" height="340" as="geometry"/>
                </mxCell>
                <mxCell id="12" value="リバーシで学ぶアプリケーション設計入門" style="rounded=0;whiteSpace=wrap;html=1;fillColor=none;" vertex="1" parent="1">
                    <mxGeometry x="190" y="380" width="440" height="60" as="geometry"/>
                </mxCell>
                <mxCell id="13" value="白の番はスリップです" style="rounded=1;whiteSpace=wrap;html=1;arcSize=8;fillColor=none;" vertex="1" parent="1">
                    <mxGeometry x="350" y="470" width="130" height="40" as="geometry"/>
                </mxCell>
                <mxCell id="14" value="盤面" style="rounded=1;whiteSpace=wrap;html=1;arcSize=0;fillColor=none;direction=south;" vertex="1" parent="1">
                    <mxGeometry x="247.5" y="530" width="325" height="125" as="geometry"/>
                </mxCell>
                <mxCell id="15" value="次は黒の番です&lt;div&gt;&lt;br&gt;&lt;/div&gt;" style="text;html=1;align=center;verticalAlign=middle;resizable=0;points=[];autosize=1;strokeColor=none;fillColor=none;" vertex="1" parent="1">
                    <mxGeometry x="350" y="680" width="110" height="40" as="geometry"/>
                </mxCell>
            </root>
        </mxGraphModel>
    </diagram>
</mxfile>